<?xml version="1.0" ?>
<svg xmlns="http://www.w3.org/2000/svg" xmlns:ev="http://www.w3.org/2001/xml-events" xmlns:xlink="http://www.w3.org/1999/xlink" baseProfile="full" height="600px" version="1.1" viewBox="-233.505 -302.505 2787.01 3615.01" width="463px">
	<defs/>
	<path d="M 0.0,0.0 L 2320.0,0.0 M 0.0,77.0 L 2320.0,77.0 M 0.0,154.0 L 2320.0,154.0 M 0.0,231.0 L 2320.0,231.0 M 0.0,308.0 L 2320.0,308.0 M 0.0,386.0 L 2320.0,386.0 M 0.0,463.0 L 2320.0,463.0 M 0.0,540.0 L 2320.0,540.0 M 0.0,617.0 L 2320.0,617.0 M 0.0,694.0 L 2320.0,694.0 M 0.0,772.0 L 2320.0,772.0 M 0.0,849.0 L 2320.0,849.0 M 0.0,926.0 L 2320.0,926.0 M 0.0,1003.0 L 2320.0,1003.0 M 0.0,1080.0 L 2320.0,1080.0 M 0.0,1158.0 L 2320.0,1158.0 M 0.0,1235.0 L 2320.0,1235.0 M 0.0,1312.0 L 2320.0,1312.0 M 0.0,1389.0 L 2320.0,1389.0 M 0.0,1466.0 L 2320.0,1466.0 M 0.0,1544.0 L 2320.0,1544.0 M 0.0,1621.0 L 2320.0,1621.0 M 0.0,1698.0 L 2320.0,1698.0 M 0.0,1775.0 L 2320.0,1775.0 M 0.0,1852.0 L 2320.0,1852.0 M 0.0,1930.0 L 2320.0,1930.0 M 0.0,2007.0 L 2320.0,2007.0 M 0.0,2084.0 L 2320.0,2084.0 M 0.0,2161.0 L 2320.0,2161.0 M 0.0,2238.0 L 2320.0,2238.0 M 0.0,2316.0 L 2320.0,2316.0 M 0.0,2393.0 L 2320.0,2393.0 M 0.0,2470.0 L 2320.0,2470.0 M 0.0,2547.0 L 2320.0,2547.0 M 0.0,2624.0 L 2320.0,2624.0 M 0.0,2702.0 L 2320.0,2702.0 M 0.0,2779.0 L 2320.0,2779.0 M 0.0,2856.0 L 2320.0,2856.0 M 0.0,2933.0 L 2320.0,2933.0 M 0.0,3010.0 L 2320.0,3010.0" fill="none" stroke="#000000" stroke-width="3.0100000000000002"/>
</svg>
